<?xml version="1.0" encoding="utf-8"?>
<!-- Generator: Adobe Illustrator 21.0.0, SVG Export Plug-In . SVG Version: 6.00 Build 0)  -->
<svg version="1.1" id="Capa_1" xmlns="http://www.w3.org/2000/svg" xmlns:xlink="http://www.w3.org/1999/xlink" x="0px" y="0px"
	 viewBox="0 0 174 128" style="enable-background:new 0 0 174 128;" xml:space="preserve">
<g>
	<path style="fill:#82007E;" d="M126,61.4c9.1-20.3,7.2-40.9,7.2-40.9s-18.8,8.7-31.9,26.7C99,25.1,87,8.1,87,8.1s-12,16.9-14.3,39
		c-13-18-31.9-26.7-31.9-26.7S39,41.1,48.1,61.4c-20.3-9.1-40.9-7.2-40.9-7.2s10.6,23,32.6,35.7c22,12.7,47.2,10.4,47.3,10.4l0,0
		l0,0l0,0l0,0c0,0,25.2,2.3,47.3-10.4c22.1-12.7,32.6-35.7,32.6-35.7S146.3,52.3,126,61.4z"/>
	<g style="opacity:0.44;">
		<path style="fill:#88BDC1;" d="M116.3,72.4c6.3-14.1,5.3-28.3,5.3-28.3s-14.3,6.2-24,19.5c-1.3-16.4-10.2-29.2-10.2-29.2
			s-9.3,13-10.6,29.7c-9.7-13.7-24.4-20-24.4-20s-1,14.2,5.3,28.3c-14.3-6-28.4-4.7-28.4-4.7S37,84.3,52.9,93.5
			C68.8,102.7,87,101,87,101s0,0,0,0c-0.1,0-10.6-1.2-20.9-7.1c-10.4-6-16.6-14.5-16.6-14.5s10.5,1.1,20.9,7.1
			C80.5,92.3,86.7,100.6,87,101c0,0,0-0.1-0.1-0.2c0,0.1,0.1,0.1,0.1,0.2c-0.2-0.5-4.2-10-4.2-21.7c0.1-12,4.4-21.6,4.4-21.6
			s4.2,9.7,4.2,21.7C91.4,90,88,98.8,87.2,100.6c-0.1,0.2-0.1,0.3-0.2,0.4c0,0,0,0,0-0.1c0,0,0,0.1,0,0.1c0,0,0,0,0,0c0,0,0,0,0,0
			s18.2,1.7,34.1-7.5c15.9-9.2,23.6-25.8,23.6-25.8S130.6,66.4,116.3,72.4z M83.6,95c-2.9-4.5-7.7-10.7-14.5-16
			c-3.7-8.1-4.6-15-4.6-15s7.1,4.9,13,13.4C78.9,84.6,81.4,90.7,83.6,95z M96.9,76.8c5.8-8.1,12.6-12.8,12.6-12.8s-0.9,6.9-4.6,15
			c-6.3,4.9-10.9,10.6-13.8,15C93.2,89.7,95.7,83.7,96.9,76.8z M107.9,93.9c-10,5.8-20.1,7-20.9,7.1c0,0,0.2-0.2,0.3-0.5
			c1.5-1.9,7.4-8.9,16.2-14c10.4-6,20.9-7.1,20.9-7.1S118.3,87.9,107.9,93.9z"/>
		<path style="fill:#88BDC1;" d="M93.6,109.6C93.6,109.6,93.6,109.6,93.6,109.6C93.6,109.6,93.6,109.6,93.6,109.6L93.6,109.6z"/>
	</g>
	<g style="opacity:0.6;">
		<path style="opacity:2.000000e-02;fill-rule:evenodd;clip-rule:evenodd;fill:#A589B7;" d="M88.6,120.4c22.7,0,41.2-2.4,41.2-5.4
			c0-3-18.5-5.4-41.2-5.4c-22.7,0-41.2,2.4-41.2,5.4C47.4,118,65.9,120.4,88.6,120.4z"/>
		
			<ellipse style="opacity:2.000000e-02;fill-rule:evenodd;clip-rule:evenodd;fill:#A589B7;" cx="88.6" cy="115" rx="40.5" ry="5.3"/>
		
			<ellipse style="opacity:2.000000e-02;fill-rule:evenodd;clip-rule:evenodd;fill:#A589B7;" cx="88.6" cy="115" rx="39.8" ry="5.2"/>
		
			<ellipse style="opacity:2.000000e-02;fill-rule:evenodd;clip-rule:evenodd;fill:#A589B7;" cx="88.6" cy="115" rx="39.1" ry="5.1"/>
		
			<ellipse style="opacity:2.000000e-02;fill-rule:evenodd;clip-rule:evenodd;fill:#A589B7;" cx="88.6" cy="115" rx="38.4" ry="5.1"/>
		<ellipse style="opacity:2.000000e-02;fill-rule:evenodd;clip-rule:evenodd;fill:#A589B7;" cx="88.6" cy="115" rx="37.7" ry="5"/>
		<ellipse style="opacity:2.000000e-02;fill-rule:evenodd;clip-rule:evenodd;fill:#A589B7;" cx="88.6" cy="115" rx="37" ry="4.9"/>
		
			<ellipse style="opacity:2.000000e-02;fill-rule:evenodd;clip-rule:evenodd;fill:#A589B7;" cx="88.6" cy="115" rx="36.3" ry="4.8"/>
		
			<ellipse style="opacity:2.000000e-02;fill-rule:evenodd;clip-rule:evenodd;fill:#A589B7;" cx="88.6" cy="115" rx="35.6" ry="4.7"/>
		
			<ellipse style="opacity:2.000000e-02;fill-rule:evenodd;clip-rule:evenodd;fill:#A589B7;" cx="88.6" cy="115" rx="34.9" ry="4.6"/>
		
			<ellipse style="opacity:2.000000e-02;fill-rule:evenodd;clip-rule:evenodd;fill:#A589B7;" cx="88.6" cy="115" rx="34.2" ry="4.5"/>
		
			<ellipse style="opacity:2.000000e-02;fill-rule:evenodd;clip-rule:evenodd;fill:#A589B7;" cx="88.6" cy="115" rx="33.5" ry="4.4"/>
		
			<ellipse style="opacity:2.000000e-02;fill-rule:evenodd;clip-rule:evenodd;fill:#A589B7;" cx="88.6" cy="115" rx="32.8" ry="4.3"/>
		
			<ellipse style="opacity:2.000000e-02;fill-rule:evenodd;clip-rule:evenodd;fill:#A589B7;" cx="88.6" cy="115" rx="32.1" ry="4.2"/>
		
			<ellipse style="opacity:2.000000e-02;fill-rule:evenodd;clip-rule:evenodd;fill:#A589B7;" cx="88.6" cy="115" rx="31.4" ry="4.1"/>
		<ellipse style="opacity:2.000000e-02;fill-rule:evenodd;clip-rule:evenodd;fill:#A589B7;" cx="88.6" cy="115" rx="30.7" ry="4"/>
		<ellipse style="opacity:2.000000e-02;fill-rule:evenodd;clip-rule:evenodd;fill:#A589B7;" cx="88.6" cy="115" rx="30" ry="3.9"/>
		
			<ellipse style="opacity:2.000000e-02;fill-rule:evenodd;clip-rule:evenodd;fill:#A589B7;" cx="88.6" cy="115" rx="29.3" ry="3.8"/>
		
			<ellipse style="opacity:2.000000e-02;fill-rule:evenodd;clip-rule:evenodd;fill:#A589B7;" cx="88.6" cy="115" rx="28.5" ry="3.7"/>
		
			<ellipse style="opacity:2.000000e-02;fill-rule:evenodd;clip-rule:evenodd;fill:#A589B7;" cx="88.6" cy="115" rx="27.8" ry="3.6"/>
		
			<ellipse style="opacity:2.000000e-02;fill-rule:evenodd;clip-rule:evenodd;fill:#A589B7;" cx="88.6" cy="115" rx="27.1" ry="3.5"/>
		
			<ellipse style="opacity:2.000000e-02;fill-rule:evenodd;clip-rule:evenodd;fill:#A589B7;" cx="88.6" cy="115" rx="26.4" ry="3.4"/>
		
			<ellipse style="opacity:2.000000e-02;fill-rule:evenodd;clip-rule:evenodd;fill:#A589B7;" cx="88.6" cy="115" rx="25.7" ry="3.3"/>
		<ellipse style="opacity:2.000000e-02;fill-rule:evenodd;clip-rule:evenodd;fill:#A589B7;" cx="88.6" cy="115" rx="25" ry="3.3"/>
		
			<ellipse style="opacity:2.000000e-02;fill-rule:evenodd;clip-rule:evenodd;fill:#A589B7;" cx="88.6" cy="115" rx="24.3" ry="3.2"/>
		
			<ellipse style="opacity:2.000000e-02;fill-rule:evenodd;clip-rule:evenodd;fill:#A589B7;" cx="88.6" cy="115" rx="23.6" ry="3.1"/>
		<ellipse style="opacity:2.000000e-02;fill-rule:evenodd;clip-rule:evenodd;fill:#A589B7;" cx="88.6" cy="115" rx="22.9" ry="3"/>
		
			<ellipse style="opacity:2.000000e-02;fill-rule:evenodd;clip-rule:evenodd;fill:#A589B7;" cx="88.6" cy="115" rx="22.2" ry="2.9"/>
		
			<ellipse style="opacity:2.000000e-02;fill-rule:evenodd;clip-rule:evenodd;fill:#A589B7;" cx="88.6" cy="115" rx="21.5" ry="2.8"/>
		
			<ellipse style="opacity:2.000000e-02;fill-rule:evenodd;clip-rule:evenodd;fill:#A589B7;" cx="88.6" cy="115" rx="20.8" ry="2.7"/>
		
			<ellipse style="opacity:2.000000e-02;fill-rule:evenodd;clip-rule:evenodd;fill:#A589B7;" cx="88.6" cy="115" rx="20.1" ry="2.6"/>
		
			<ellipse style="opacity:2.000000e-02;fill-rule:evenodd;clip-rule:evenodd;fill:#A589B7;" cx="88.6" cy="115" rx="19.4" ry="2.5"/>
		
			<ellipse style="opacity:2.000000e-02;fill-rule:evenodd;clip-rule:evenodd;fill:#A589B7;" cx="88.6" cy="115" rx="18.7" ry="2.4"/>
		<ellipse style="opacity:2.000000e-02;fill-rule:evenodd;clip-rule:evenodd;fill:#A589B7;" cx="88.6" cy="115" rx="18" ry="2.3"/>
		
			<ellipse style="opacity:2.000000e-02;fill-rule:evenodd;clip-rule:evenodd;fill:#A589B7;" cx="88.6" cy="115" rx="17.3" ry="2.2"/>
		
			<ellipse style="opacity:2.000000e-02;fill-rule:evenodd;clip-rule:evenodd;fill:#A589B7;" cx="88.6" cy="115" rx="16.6" ry="2.1"/>
		<ellipse style="opacity:2.000000e-02;fill-rule:evenodd;clip-rule:evenodd;fill:#A589B7;" cx="88.6" cy="115" rx="15.9" ry="2"/>
		
			<ellipse style="opacity:2.000000e-02;fill-rule:evenodd;clip-rule:evenodd;fill:#A589B7;" cx="88.6" cy="115" rx="15.2" ry="1.9"/>
		
			<ellipse style="opacity:2.000000e-02;fill-rule:evenodd;clip-rule:evenodd;fill:#A589B7;" cx="88.6" cy="115" rx="14.5" ry="1.8"/>
		
			<ellipse style="opacity:2.000000e-02;fill-rule:evenodd;clip-rule:evenodd;fill:#A589B7;" cx="88.6" cy="115" rx="13.8" ry="1.7"/>
		
			<ellipse style="opacity:2.000000e-02;fill-rule:evenodd;clip-rule:evenodd;fill:#A589B7;" cx="88.6" cy="115" rx="13.1" ry="1.6"/>
		
			<ellipse style="opacity:2.000000e-02;fill-rule:evenodd;clip-rule:evenodd;fill:#A589B7;" cx="88.6" cy="115" rx="12.4" ry="1.5"/>
		
			<ellipse style="opacity:2.000000e-02;fill-rule:evenodd;clip-rule:evenodd;fill:#A589B7;" cx="88.6" cy="115" rx="11.7" ry="1.5"/>
		<ellipse style="opacity:2.000000e-02;fill-rule:evenodd;clip-rule:evenodd;fill:#A589B7;" cx="88.6" cy="115" rx="11" ry="1.4"/>
		
			<ellipse style="opacity:2.000000e-02;fill-rule:evenodd;clip-rule:evenodd;fill:#A589B7;" cx="88.6" cy="115" rx="10.3" ry="1.3"/>
		<ellipse style="opacity:2.000000e-02;fill-rule:evenodd;clip-rule:evenodd;fill:#A589B7;" cx="88.6" cy="115" rx="9.6" ry="1.2"/>
		<ellipse style="opacity:2.000000e-02;fill-rule:evenodd;clip-rule:evenodd;fill:#A589B7;" cx="88.6" cy="115" rx="8.9" ry="1.1"/>
		<ellipse style="opacity:2.000000e-02;fill-rule:evenodd;clip-rule:evenodd;fill:#A589B7;" cx="88.6" cy="115" rx="8.2" ry="1"/>
		<ellipse style="opacity:2.000000e-02;fill-rule:evenodd;clip-rule:evenodd;fill:#A589B7;" cx="88.6" cy="115" rx="7.5" ry="0.9"/>
		<ellipse style="opacity:2.000000e-02;fill-rule:evenodd;clip-rule:evenodd;fill:#A589B7;" cx="88.6" cy="115" rx="6.8" ry="0.8"/>
		<ellipse style="opacity:2.000000e-02;fill-rule:evenodd;clip-rule:evenodd;fill:#A589B7;" cx="88.6" cy="115" rx="6.1" ry="0.7"/>
		<path style="opacity:2.000000e-02;fill-rule:evenodd;clip-rule:evenodd;fill:#A589B7;" d="M88.6,115.6c2.9,0,5.4-0.3,5.4-0.6
			c0-0.3-2.4-0.6-5.4-0.6c-2.9,0-5.4,0.3-5.4,0.6C83.2,115.3,85.6,115.6,88.6,115.6z"/>
	</g>
</g>
</svg>
